HIERARCHY
ROOT joint_Root
{
	OFFSET 0.0 0.0 0.0
	CHANNELS 6 Xposition Yposition Zposition Zrotation Xrotation Yrotation 
	JOINT Hips
	{
		OFFSET 4.5925 91.4895 -427.239
		CHANNELS 6 Xposition Yposition Zposition Zrotation Xrotation Yrotation 
		JOINT Spine
		{
			OFFSET 15.7357 0.0 0.0
			CHANNELS 6 Xposition Yposition Zposition Zrotation Xrotation Yrotation 
			JOINT Chest
			{
				OFFSET 8.98455 -0.406207 0.0
				CHANNELS 6 Xposition Yposition Zposition Zrotation Xrotation Yrotation 
				JOINT Neck
				{
					OFFSET 16.3773 0.0 0.0
					CHANNELS 6 Xposition Yposition Zposition Zrotation Xrotation Yrotation 
					JOINT Head
					{
						OFFSET 6.45672 0.0 0.0
						CHANNELS 6 Xposition Yposition Zposition Zrotation Xrotation Yrotation 
						End Site
						{
							OFFSET 0.0 0.0 0.0
						}
					}
				}
				JOINT Shoulder_L
				{
					OFFSET 12.9942 -0.242716 4.98039
					CHANNELS 6 Xposition Yposition Zposition Zrotation Xrotation Yrotation 
					JOINT UpperArm_L
					{
						OFFSET 5.34809 0.0 0.0
						CHANNELS 6 Xposition Yposition Zposition Zrotation Xrotation Yrotation 
						JOINT LowerArm_L
						{
							OFFSET 24.3286 1.87007e-05 0.0
							CHANNELS 6 Xposition Yposition Zposition Zrotation Xrotation Yrotation 
							JOINT Hand_L
							{
								OFFSET 22.2916 0.0 0.0
								CHANNELS 6 Xposition Yposition Zposition Zrotation Xrotation Yrotation 
								End Site
								{
									OFFSET 0.0 0.0 0.0
								}
							}
						}
					}
				}
				JOINT Shoulder_R
				{
					OFFSET 12.9945 -0.242716 -4.98039
					CHANNELS 6 Xposition Yposition Zposition Zrotation Xrotation Yrotation 
					JOINT UpperArm_R
					{
						OFFSET -5.34813 0.0 0.0
						CHANNELS 6 Xposition Yposition Zposition Zrotation Xrotation Yrotation 
						JOINT LowerArm_R
						{
							OFFSET -24.3289 0.000322201 0.0
							CHANNELS 6 Xposition Yposition Zposition Zrotation Xrotation Yrotation 
							JOINT Hand_R
							{
								OFFSET -22.2915 -0.000108084 0.0
								CHANNELS 6 Xposition Yposition Zposition Zrotation Xrotation Yrotation 
								End Site
								{
									OFFSET 0.0 0.0 0.0
								}
							}
						}
					}
				}
			}
		}
		JOINT UpperLeg_L
		{
			OFFSET -2.19248 -6.46944 0.0
			CHANNELS 6 Xposition Yposition Zposition Zrotation Xrotation Yrotation 
			JOINT LowerLeg_L
			{
				OFFSET 39.0811 0.0 -1.23785e-05
				CHANNELS 6 Xposition Yposition Zposition Zrotation Xrotation Yrotation 
				JOINT Foot_L
				{
					OFFSET 40.9854 0.0 -1.26872e-05
					CHANNELS 6 Xposition Yposition Zposition Zrotation Xrotation Yrotation 
					JOINT Toes_L
					{
						OFFSET 11.7543 0.0 0.0
						CHANNELS 6 Xposition Yposition Zposition Zrotation Xrotation Yrotation 
						End Site
						{
							OFFSET 0.0 0.0 0.0
						}
					}
				}
			}
		}
		JOINT UpperLeg_R
		{
			OFFSET -2.19251 6.46944 0.0
			CHANNELS 6 Xposition Yposition Zposition Zrotation Xrotation Yrotation 
			JOINT LowerLeg_R
			{
				OFFSET -39.0811 -0.00228153 -0.0401928
				CHANNELS 6 Xposition Yposition Zposition Zrotation Xrotation Yrotation 
				JOINT Foot_R
				{
					OFFSET -40.9854 0.0 0.0
					CHANNELS 6 Xposition Yposition Zposition Zrotation Xrotation Yrotation 
					JOINT Toes_R
					{
						OFFSET -11.7543 0.0 0.0
						CHANNELS 6 Xposition Yposition Zposition Zrotation Xrotation Yrotation 
						End Site
						{
							OFFSET 0.0 0.0 0.0
						}
					}
				}
			}
		}
	}
}
MOTION
Frames:	6
Frame Time:	0.0333333
0.000000 0.000000 0.000000 0.000000 0.000000 -0.000000 4.550840 91.022000 -0.712381 90.678400 -6.840280 13.701600 15.735700 0.000005 -0.000001 86.777000 84.386100 -87.713700 8.984550 -0.406207 -0.000000 3.440090 -0.595163 -1.853550 16.377300 -0.000001 -0.000001 29.236600 -2.868740 -1.932880 6.456720 -0.000001 -0.000000 16.763800 -1.571810 3.216890 12.994200 -0.242716 4.980390 -87.674500 -5.611110 -67.445000 5.348090 -0.000007 -0.000001 -70.418200 -42.530200 -94.644800 24.328600 0.000019 0.000005 18.210000 7.369080 -68.700300 22.291600 -0.000001 0.000005 23.463300 5.339020 -1.050490 12.994500 -0.242716 -4.980390 90.775600 -2.748850 -74.236400 -5.348130 -0.000001 -0.000004 -54.449400 -45.869100 -85.881000 -24.328900 0.000322 -0.000009 6.002380 2.592120 -66.731600 -22.291500 -0.000108 -0.000004 26.949700 5.517920 -7.273490 -2.192480 -6.469440 -0.000000 -177.952000 -17.466900 5.532650 39.081100 -0.000007 -0.000012 -0.053383 0.100404 27.999000 40.985400 -0.000006 -0.000013 4.186290 4.599000 -70.259200 11.754300 -0.000000 0.000003 -0.000155 -0.001497 -16.634400 -2.192510 6.469440 -0.000001 167.487000 18.842100 -174.577000 -39.081100 -0.002282 -0.040193 -0.217269 0.413981 28.049700 -40.985400 0.000008 0.000006 -0.309753 17.403400 -68.124400 -11.754300 -0.000006 -0.000006 -0.002184 -0.030999 -17.833600
0.000000 0.000000 0.000000 0.000000 0.000000 -0.000000 4.700920 91.005700 -0.677536 90.649700 -6.898240 13.704600 15.735700 0.000005 -0.000001 86.810400 84.401000 -87.718200 8.984550 -0.406207 -0.000000 3.410840 -0.587836 -1.796130 16.377300 -0.000001 -0.000001 29.211600 -2.890190 -1.911850 6.456720 -0.000001 -0.000000 16.702900 -1.594640 3.235110 12.994200 -0.242716 4.980390 -87.685300 -5.578370 -67.420800 5.348090 -0.000007 -0.000001 -70.668800 -42.703300 -94.888100 24.328600 0.000019 0.000005 18.161200 7.319360 -68.775100 22.291600 -0.000001 0.000005 23.515400 5.337310 -0.999901 12.994500 -0.242716 -4.980390 90.773700 -2.737340 -74.210900 -5.348130 -0.000001 -0.000004 -54.791600 -45.848100 -86.102200 -24.328900 0.000322 -0.000009 5.923340 2.556300 -66.743200 -22.291500 -0.000108 -0.000004 27.083800 5.516360 -7.207490 -2.192480 -6.469440 -0.000000 -178.030000 -17.477500 5.522090 39.081100 -0.000007 -0.000012 -0.052298 0.098134 28.054500 40.985400 -0.000006 -0.000013 4.279110 4.532160 -70.326700 11.754300 -0.000000 0.000003 -0.000152 -0.001472 -16.633500 -2.192510 6.469440 -0.000001 167.378000 18.828400 -174.553000 -39.081100 -0.002282 -0.040193 -0.224316 0.427601 28.027800 -40.985400 0.000008 0.000006 -0.412888 17.529100 -68.083700 -11.754300 -0.000006 -0.000006 -0.002397 -0.033583 -17.938700
0.000000 0.000000 0.000000 0.000000 0.000000 -0.000000 4.840370 91.000900 -0.644250 90.612700 -6.962720 13.729900 15.735700 0.000005 -0.000001 86.753700 84.414600 -87.637500 8.984550 -0.406207 -0.000000 3.382920 -0.598057 -1.747960 16.377300 -0.000001 -0.000001 29.191300 -2.892930 -1.905670 6.456720 -0.000001 -0.000000 16.639800 -1.575910 3.283520 12.994200 -0.242716 4.980390 -87.677400 -5.588900 -67.389900 5.348090 -0.000007 -0.000001 -70.952900 -42.842400 -95.089500 24.328600 0.000019 0.000005 18.057200 7.233350 -68.883300 22.291600 -0.000001 0.000005 23.601200 5.340580 -1.096530 12.994500 -0.242716 -4.980390 90.774200 -2.741950 -74.226000 -5.348130 -0.000001 -0.000004 -55.050200 -45.813600 -86.250900 -24.328900 0.000322 -0.000009 6.026330 2.604370 -66.717000 -22.291500 -0.000108 -0.000004 27.242000 5.517840 -7.270440 -2.192480 -6.469440 -0.000000 -178.119000 -17.415000 5.568090 39.081100 -0.000007 -0.000012 -0.047401 0.088998 28.040400 40.985400 -0.000006 -0.000013 4.338700 4.369530 -70.358100 11.754300 -0.000000 0.000003 -0.000160 -0.001533 -16.635700 -2.192510 6.469440 -0.000001 167.302000 18.847600 -174.498000 -39.081100 -0.002282 -0.040193 -0.215133 0.411402 27.967000 -40.985400 0.000008 0.000006 -0.499427 17.637600 -68.012800 -11.754300 -0.000006 -0.000006 -0.002016 -0.028911 -17.748700
0.000000 0.000000 0.000000 0.000000 0.000000 -0.000000 4.967550 90.982900 -0.591595 90.573900 -6.982680 13.795600 15.735700 0.000005 -0.000001 86.856700 84.415600 -87.723100 8.984550 -0.406207 -0.000000 3.382390 -0.578597 -1.713840 16.377300 -0.000001 -0.000001 29.127200 -2.924480 -1.904780 6.456720 -0.000001 -0.000000 16.623800 -1.642490 3.402940 12.994200 -0.242716 4.980390 -87.688600 -5.568360 -67.414100 5.348090 -0.000007 -0.000001 -71.137400 -42.876800 -95.314000 24.328600 0.000019 0.000005 17.875400 7.136950 -68.932100 22.291600 -0.000001 0.000005 23.726500 5.337320 -1.000050 12.994500 -0.242716 -4.980390 90.768400 -2.720050 -74.217700 -5.348130 -0.000001 -0.000004 -55.177400 -45.830900 -86.315600 -24.328900 0.000322 -0.000009 5.885340 2.546180 -66.691000 -22.291500 -0.000108 -0.000004 27.236300 5.515930 -7.190910 -2.192480 -6.469440 -0.000000 -178.150000 -17.415100 5.646120 39.081100 -0.000007 -0.000012 -0.046447 0.087003 28.095900 40.985400 -0.000006 -0.000013 4.415070 4.305230 -70.441500 11.754300 -0.000000 0.000003 -0.000148 -0.001434 -16.632100 -2.192510 6.469440 -0.000001 167.185000 18.846500 -174.380000 -39.081100 -0.002282 -0.040193 -0.224261 0.429049 27.941800 -40.985400 0.000008 0.000006 -0.590427 17.737700 -67.993300 -11.754300 -0.000006 -0.000006 -0.002344 -0.032937 -17.912500
0.000000 0.000000 0.000000 0.000000 0.000000 -0.000000 5.083220 90.977600 -0.556820 90.534400 -7.033420 13.841500 15.735700 0.000005 -0.000001 86.864300 84.424800 -87.709300 8.984550 -0.406207 -0.000000 3.364160 -0.576791 -1.671370 16.377300 -0.000001 -0.000001 29.111300 -2.929810 -1.888300 6.456720 -0.000001 -0.000000 16.552800 -1.656120 3.421880 12.994200 -0.242716 4.980390 -87.685800 -5.562460 -67.367400 5.348090 -0.000007 -0.000001 -71.392800 -42.831200 -95.476100 24.328600 0.000019 0.000005 17.940700 7.105450 -69.091000 22.291600 -0.000001 0.000005 23.642400 5.337390 -1.002430 12.994500 -0.242716 -4.980390 90.764600 -2.704600 -74.207400 -5.348130 -0.000001 -0.000004 -55.337600 -45.762300 -86.441700 -24.328900 0.000322 -0.000009 5.902920 2.557910 -66.657700 -22.291500 -0.000108 -0.000004 27.122900 5.516800 -7.226500 -2.192480 -6.469440 -0.000000 -178.191000 -17.394200 5.718640 39.081100 -0.000007 -0.000012 -0.044349 0.083092 28.090500 40.985400 -0.000006 -0.000013 4.478110 4.222730 -70.479100 11.754300 -0.000000 0.000003 -0.000145 -0.001410 -16.631200 -2.192510 6.469440 -0.000001 167.102000 18.880700 -174.285000 -39.081100 -0.002282 -0.040193 -0.218705 0.419710 27.877500 -40.985400 0.000008 0.000006 -0.662060 17.860600 -67.936500 -11.754300 -0.000006 -0.000006 -0.002190 -0.031064 -17.836300
0.000000 0.000000 0.000000 0.000000 0.000000 -0.000000 5.194830 90.961400 -0.525180 90.490500 -7.046290 13.879500 15.735700 0.000005 -0.000001 86.844400 84.431500 -87.676600 8.984550 -0.406207 -0.000000 3.350480 -0.580305 -1.645720 16.377300 -0.000001 -0.000001 29.022300 -2.938520 -1.864540 6.456720 -0.000001 -0.000000 16.578100 -1.663420 3.427180 12.994200 -0.242716 4.980390 -87.695900 -5.556850 -67.436100 5.348090 -0.000007 -0.000001 -71.547400 -42.880400 -95.514800 24.328600 0.000019 0.000005 17.925100 6.983400 -69.400800 22.291600 -0.000001 0.000005 23.632500 5.335650 -0.950964 12.994500 -0.242716 -4.980390 90.760000 -2.692390 -74.229600 -5.348130 -0.000001 -0.000004 -55.364700 -45.737200 -86.441600 -24.328900 0.000322 -0.000009 5.915220 2.569010 -66.611200 -22.291500 -0.000108 -0.000004 27.207100 5.517230 -7.244350 -2.192480 -6.469440 -0.000000 -178.220000 -17.402600 5.737960 39.081100 -0.000007 -0.000012 -0.042268 0.078963 28.159900 40.985400 -0.000006 -0.000013 4.550030 4.162310 -70.544900 11.754300 -0.000000 0.000003 -0.000152 -0.001468 -16.633300 -2.192510 6.469440 -0.000001 167.020000 18.906200 -174.217000 -39.081100 -0.002282 -0.040193 -0.221638 0.425489 27.864500 -40.985400 0.000008 0.000006 -0.734229 17.959900 -67.910500 -11.754300 -0.000006 -0.000006 -0.002295 -0.032345 -17.888400
